<?xml version="1.0" encoding="utf-8" standalone="no"?>
<!DOCTYPE svg PUBLIC "-//W3C//DTD SVG 1.1//EN"
  "http://www.w3.org/Graphics/SVG/1.1/DTD/svg11.dtd">
<svg xmlns:xlink="http://www.w3.org/1999/xlink" width="593.819574pt" height="295.762625pt" viewBox="0 0 593.819574 295.762625" xmlns="http://www.w3.org/2000/svg" version="1.1">
 <metadata>
  <rdf:RDF xmlns:dc="http://purl.org/dc/elements/1.1/" xmlns:cc="http://creativecommons.org/ns#" xmlns:rdf="http://www.w3.org/1999/02/22-rdf-syntax-ns#">
   <cc:Work>
    <dc:type rdf:resource="http://purl.org/dc/dcmitype/StillImage"/>
    <dc:date>2026-06-27T21:00:12.170997</dc:date>
    <dc:format>image/svg+xml</dc:format>
    <dc:creator>
     <cc:Agent>
      <dc:title>Matplotlib v3.10.9, https://matplotlib.org/</dc:title>
     </cc:Agent>
    </dc:creator>
   </cc:Work>
  </rdf:RDF>
 </metadata>
 <defs>
  <style type="text/css">*{stroke-linejoin: round; stroke-linecap: butt}</style>
 </defs>
 <g id="figure_1">
  <g id="patch_1">
   <path d="M 0 295.762625 
L 593.819574 295.762625 
L 593.819574 0 
L 0 0 
z
" style="fill: #ffffff"/>
  </g>
  <g id="axes_1">
   <g id="patch_2">
    <path d="M 7.2 148.907681 
L 8.553824 148.910452 
L 9.907648 148.91369 
L 11.261472 148.917466 
L 12.615296 148.921863 
L 13.96912 148.926973 
L 15.322944 148.9329 
L 16.676768 148.939764 
L 18.030593 148.947698 
L 19.384417 148.956853 
L 20.738241 148.967397 
L 22.092065 148.979519 
L 23.445889 148.993431 
L 24.799713 149.009366 
L 26.153537 149.027587 
L 27.507361 149.048384 
L 28.861185 149.072078 
L 30.215009 149.099023 
L 31.568833 149.129608 
L 32.922657 149.164263 
L 34.276481 149.203456 
L 35.630305 149.247702 
L 36.98413 149.297558 
L 38.337954 149.353633 
L 39.691778 149.416586 
L 41.045602 149.487129 
L 42.399426 149.566031 
L 43.75325 149.654117 
L 45.107074 149.752272 
L 46.460898 149.861443 
L 47.814722 149.982638 
L 49.168546 150.116927 
L 50.52237 150.265444 
L 51.876194 150.429384 
L 53.230018 150.610004 
L 54.583842 150.808621 
L 55.937667 151.02661 
L 57.291491 151.265398 
L 58.645315 151.526466 
L 59.999139 151.811338 
L 61.352963 152.121577 
L 62.706787 152.458781 
L 64.060611 152.824573 
L 65.414435 153.220589 
L 66.768259 153.648476 
L 68.122083 154.109873 
L 69.475907 154.606404 
L 70.829731 155.139662 
L 72.183555 155.711198 
L 73.537379 156.322503 
L 74.891203 156.974992 
L 76.245028 157.669992 
L 77.598852 158.408719 
L 78.952676 159.192265 
L 80.3065 160.021573 
L 81.660324 160.897428 
L 83.014148 161.820429 
L 84.367972 162.790977 
L 85.721796 163.809255 
L 87.07562 164.875207 
L 88.429444 165.988527 
L 89.783268 167.148639 
L 91.137092 168.354681 
L 92.490916 169.605499 
L 93.84474 170.899625 
L 95.198565 172.235277 
L 96.552389 173.610345 
L 97.906213 175.022389 
L 99.260037 176.468635 
L 100.613861 177.945976 
L 101.967685 179.450976 
L 103.321509 180.979872 
L 104.675333 182.528589 
L 106.029157 184.092747 
L 107.382981 185.66768 
L 108.736805 187.248453 
L 110.090629 188.829886 
L 111.444453 190.406575 
L 112.798277 191.972925 
L 114.152102 193.523177 
L 115.505926 195.051442 
L 116.85975 196.551738 
L 118.213574 198.018028 
L 119.567398 199.444256 
L 120.921222 200.824391 
L 122.275046 202.15247 
L 123.62887 203.422635 
L 124.982694 204.629182 
L 126.336518 205.766599 
L 127.690342 206.829611 
L 129.044166 207.813216 
L 130.39799 208.71273 
L 131.751814 209.52382 
L 133.105639 210.242541 
L 134.459463 210.865364 
L 135.813287 211.38921 
L 137.167111 211.811473 
L 138.520935 212.130042 
L 139.874759 212.343317 
L 141.228583 212.450224 
L 142.582407 212.450224 
L 143.936231 212.343317 
L 145.290055 212.130042 
L 146.643879 211.811473 
L 147.997703 211.38921 
L 149.351527 210.865364 
L 150.705351 210.242541 
L 152.059175 209.52382 
L 153.413 208.71273 
L 154.766824 207.813216 
L 156.120648 206.829611 
L 157.474472 205.766599 
L 158.828296 204.629182 
L 160.18212 203.422635 
L 161.535944 202.15247 
L 162.889768 200.824391 
L 164.243592 199.444256 
L 165.597416 198.018028 
L 166.95124 196.551738 
L 168.305064 195.051442 
L 169.658888 193.523177 
L 171.012712 191.972925 
L 172.366537 190.406575 
L 173.720361 188.829886 
L 175.074185 187.248453 
L 176.428009 185.66768 
L 177.781833 184.092747 
L 179.135657 182.528589 
L 180.489481 180.979872 
L 181.843305 179.450976 
L 183.197129 177.945976 
L 184.550953 176.468635 
L 185.904777 175.022389 
L 187.258601 173.610345 
L 188.612425 172.235277 
L 189.966249 170.899625 
L 191.320074 169.605499 
L 192.673898 168.354681 
L 194.027722 167.148639 
L 195.381546 165.988527 
L 196.73537 164.875207 
L 198.089194 163.809255 
L 199.443018 162.790977 
L 200.796842 161.820429 
L 202.150666 160.897428 
L 203.50449 160.021573 
L 204.858314 159.192265 
L 206.212138 158.408719 
L 207.565962 157.669992 
L 208.919786 156.974992 
L 210.27361 156.322503 
L 211.627435 155.711198 
L 212.981259 155.139662 
L 214.335083 154.606404 
L 215.688907 154.109873 
L 217.042731 153.648476 
L 218.396555 153.220589 
L 219.750379 152.824573 
L 221.104203 152.458781 
L 222.458027 152.121577 
L 223.811851 151.811338 
L 225.165675 151.526466 
L 226.519499 151.265398 
L 227.873323 151.02661 
L 229.227147 150.808621 
L 230.580972 150.610004 
L 231.934796 150.429384 
L 233.28862 150.265444 
L 234.642444 150.116927 
L 235.996268 149.982638 
L 237.350092 149.861443 
L 238.703916 149.752272 
L 240.05774 149.654117 
L 241.411564 149.566031 
L 242.765388 149.487129 
L 244.119212 149.416586 
L 245.473036 149.353633 
L 246.82686 149.297558 
L 248.180684 149.247702 
L 249.534509 149.203456 
L 250.888333 149.164263 
L 252.242157 149.129608 
L 253.595981 149.099023 
L 254.949805 149.072078 
L 256.303629 149.048384 
L 257.657453 149.027587 
L 259.011277 149.009366 
L 260.365101 148.993431 
L 261.718925 148.979519 
L 263.072749 148.967397 
L 264.426573 148.956853 
L 265.780397 148.947698 
L 267.134221 148.939764 
L 268.488045 148.9329 
L 269.84187 148.926973 
L 271.195694 148.921863 
L 272.549518 148.917466 
L 273.903342 148.91369 
L 275.257166 148.910452 
L 276.61099 148.907681 
L 276.61099 260.142 
L 7.2 260.142 
z
" clip-path="url(#p82fb856e16)" style="fill: #efe6d8; stroke: #cbb89a; stroke-linejoin: miter"/>
   </g>
   <g id="patch_3">
    <path d="M 128.434945 207.813216 
L 155.376044 207.813216 
L 155.376044 172.054416 
L 128.434945 172.054416 
z
" clip-path="url(#p82fb856e16)" style="fill: #c0392b; stroke: #000000; stroke-width: 0.6; stroke-linejoin: miter"/>
   </g>
   <g id="text_1">
    <!-- urban core -->
    <g style="fill: #c0392b" transform="translate(118.914323 150.835541) scale(0.085 -0.085)">
     <defs>
      <path id="DejaVuSans-75" d="M 544 1381 
L 544 3500 
L 1119 3500 
L 1119 1403 
Q 1119 906 1312 657 
Q 1506 409 1894 409 
Q 2359 409 2629 706 
Q 2900 1003 2900 1516 
L 2900 3500 
L 3475 3500 
L 3475 0 
L 2900 0 
L 2900 538 
Q 2691 219 2414 64 
Q 2138 -91 1772 -91 
Q 1169 -91 856 284 
Q 544 659 544 1381 
z
M 1991 3584 
L 1991 3584 
z
" transform="scale(0.015625)"/>
      <path id="DejaVuSans-72" d="M 2631 2963 
Q 2534 3019 2420 3045 
Q 2306 3072 2169 3072 
Q 1681 3072 1420 2755 
Q 1159 2438 1159 1844 
L 1159 0 
L 581 0 
L 581 3500 
L 1159 3500 
L 1159 2956 
Q 1341 3275 1631 3429 
Q 1922 3584 2338 3584 
Q 2397 3584 2469 3576 
Q 2541 3569 2628 3553 
L 2631 2963 
z
" transform="scale(0.015625)"/>
      <path id="DejaVuSans-62" d="M 3116 1747 
Q 3116 2381 2855 2742 
Q 2594 3103 2138 3103 
Q 1681 3103 1420 2742 
Q 1159 2381 1159 1747 
Q 1159 1113 1420 752 
Q 1681 391 2138 391 
Q 2594 391 2855 752 
Q 3116 1113 3116 1747 
z
M 1159 2969 
Q 1341 3281 1617 3432 
Q 1894 3584 2278 3584 
Q 2916 3584 3314 3078 
Q 3713 2572 3713 1747 
Q 3713 922 3314 415 
Q 2916 -91 2278 -91 
Q 1894 -91 1617 61 
Q 1341 213 1159 525 
L 1159 0 
L 581 0 
L 581 4863 
L 1159 4863 
L 1159 2969 
z
" transform="scale(0.015625)"/>
      <path id="DejaVuSans-61" d="M 2194 1759 
Q 1497 1759 1228 1600 
Q 959 1441 959 1056 
Q 959 750 1161 570 
Q 1363 391 1709 391 
Q 2188 391 2477 730 
Q 2766 1069 2766 1631 
L 2766 1759 
L 2194 1759 
z
M 3341 1997 
L 3341 0 
L 2766 0 
L 2766 531 
Q 2569 213 2275 61 
Q 1981 -91 1556 -91 
Q 1019 -91 701 211 
Q 384 513 384 1019 
Q 384 1609 779 1909 
Q 1175 2209 1959 2209 
L 2766 2209 
L 2766 2266 
Q 2766 2663 2505 2880 
Q 2244 3097 1772 3097 
Q 1472 3097 1187 3025 
Q 903 2953 641 2809 
L 641 3341 
Q 956 3463 1253 3523 
Q 1550 3584 1831 3584 
Q 2591 3584 2966 3190 
Q 3341 2797 3341 1997 
z
" transform="scale(0.015625)"/>
      <path id="DejaVuSans-6e" d="M 3513 2113 
L 3513 0 
L 2938 0 
L 2938 2094 
Q 2938 2591 2744 2837 
Q 2550 3084 2163 3084 
Q 1697 3084 1428 2787 
Q 1159 2491 1159 1978 
L 1159 0 
L 581 0 
L 581 3500 
L 1159 3500 
L 1159 2956 
Q 1366 3272 1645 3428 
Q 1925 3584 2291 3584 
Q 2894 3584 3203 3211 
Q 3513 2838 3513 2113 
z
" transform="scale(0.015625)"/>
      <path id="DejaVuSans-20" transform="scale(0.015625)"/>
      <path id="DejaVuSans-63" d="M 3122 3366 
L 3122 2828 
Q 2878 2963 2633 3030 
Q 2388 3097 2138 3097 
Q 1578 3097 1268 2742 
Q 959 2388 959 1747 
Q 959 1106 1268 751 
Q 1578 397 2138 397 
Q 2388 397 2633 464 
Q 2878 531 3122 666 
L 3122 134 
Q 2881 22 2623 -34 
Q 2366 -91 2075 -91 
Q 1284 -91 818 406 
Q 353 903 353 1747 
Q 353 2603 823 3093 
Q 1294 3584 2113 3584 
Q 2378 3584 2631 3529 
Q 2884 3475 3122 3366 
z
" transform="scale(0.015625)"/>
      <path id="DejaVuSans-6f" d="M 1959 3097 
Q 1497 3097 1228 2736 
Q 959 2375 959 1747 
Q 959 1119 1226 758 
Q 1494 397 1959 397 
Q 2419 397 2687 759 
Q 2956 1122 2956 1747 
Q 2956 2369 2687 2733 
Q 2419 3097 1959 3097 
z
M 1959 3584 
Q 2709 3584 3137 3096 
Q 3566 2609 3566 1747 
Q 3566 888 3137 398 
Q 2709 -91 1959 -91 
Q 1206 -91 779 398 
Q 353 888 353 1747 
Q 353 2609 779 3096 
Q 1206 3584 1959 3584 
z
" transform="scale(0.015625)"/>
      <path id="DejaVuSans-65" d="M 3597 1894 
L 3597 1613 
L 953 1613 
Q 991 1019 1311 708 
Q 1631 397 2203 397 
Q 2534 397 2845 478 
Q 3156 559 3463 722 
L 3463 178 
Q 3153 47 2828 -22 
Q 2503 -91 2169 -91 
Q 1331 -91 842 396 
Q 353 884 353 1716 
Q 353 2575 817 3079 
Q 1281 3584 2069 3584 
Q 2775 3584 3186 3129 
Q 3597 2675 3597 1894 
z
M 3022 2063 
Q 3016 2534 2758 2815 
Q 2500 3097 2075 3097 
Q 1594 3097 1305 2825 
Q 1016 2553 972 2059 
L 3022 2063 
z
" transform="scale(0.015625)"/>
     </defs>
     <use xlink:href="#DejaVuSans-75"/>
     <use xlink:href="#DejaVuSans-72" transform="translate(63.378906 0)"/>
     <use xlink:href="#DejaVuSans-62" transform="translate(104.492188 0)"/>
     <use xlink:href="#DejaVuSans-61" transform="translate(167.96875 0)"/>
     <use xlink:href="#DejaVuSans-6e" transform="translate(229.248047 0)"/>
     <use xlink:href="#DejaVuSans-20" transform="translate(292.626953 0)"/>
     <use xlink:href="#DejaVuSans-63" transform="translate(324.414062 0)"/>
     <use xlink:href="#DejaVuSans-6f" transform="translate(379.394531 0)"/>
     <use xlink:href="#DejaVuSans-72" transform="translate(440.576172 0)"/>
     <use xlink:href="#DejaVuSans-65" transform="translate(479.439453 0)"/>
    </g>
    <!-- $z_U$ -->
    <g style="fill: #c0392b" transform="translate(137.315495 160.353682) scale(0.085 -0.085)">
     <defs>
      <path id="DejaVuSans-7a" d="M 353 3500 
L 3084 3500 
L 3084 2975 
L 922 459 
L 3084 459 
L 3084 0 
L 275 0 
L 275 525 
L 2438 3041 
L 353 3041 
L 353 3500 
z
" transform="scale(0.015625)"/>
      <path id="DejaVuSans-55" d="M 556 4666 
L 1191 4666 
L 1191 1831 
Q 1191 1081 1462 751 
Q 1734 422 2344 422 
Q 2950 422 3222 751 
Q 3494 1081 3494 1831 
L 3494 4666 
L 4128 4666 
L 4128 1753 
Q 4128 841 3676 375 
Q 3225 -91 2344 -91 
Q 1459 -91 1007 375 
Q 556 841 556 1753 
L 556 4666 
z
" transform="scale(0.015625)"/>
     </defs>
     <use xlink:href="#DejaVuSans-7a" transform="translate(0 0.3125)"/>
     <use xlink:href="#DejaVuSans-55" transform="translate(53.447266 -16.09375) scale(0.7)"/>
    </g>
   </g>
   <g id="patch_4">
    <path d="M 40.068141 149.654117 
L 49.766936 149.654117 
L 49.766936 135.350597 
L 40.068141 135.350597 
z
" clip-path="url(#p82fb856e16)" style="fill: #2563eb; stroke: #000000; stroke-width: 0.5; stroke-linejoin: miter"/>
   </g>
   <g id="patch_5">
    <path d="M 234.044054 149.752272 
L 243.742849 149.752272 
L 243.742849 135.448752 
L 234.044054 135.448752 
z
" clip-path="url(#p82fb856e16)" style="fill: #2563eb; stroke: #000000; stroke-width: 0.5; stroke-linejoin: miter"/>
   </g>
   <g id="text_2">
    <!-- rural reference -->
    <g style="fill: #2563eb" transform="translate(209.139701 117.277672) scale(0.08 -0.08)">
     <defs>
      <path id="DejaVuSans-6c" d="M 603 4863 
L 1178 4863 
L 1178 0 
L 603 0 
L 603 4863 
z
" transform="scale(0.015625)"/>
      <path id="DejaVuSans-66" d="M 2375 4863 
L 2375 4384 
L 1825 4384 
Q 1516 4384 1395 4259 
Q 1275 4134 1275 3809 
L 1275 3500 
L 2222 3500 
L 2222 3053 
L 1275 3053 
L 1275 0 
L 697 0 
L 697 3053 
L 147 3053 
L 147 3500 
L 697 3500 
L 697 3744 
Q 697 4328 969 4595 
Q 1241 4863 1831 4863 
L 2375 4863 
z
" transform="scale(0.015625)"/>
     </defs>
     <use xlink:href="#DejaVuSans-72"/>
     <use xlink:href="#DejaVuSans-75" transform="translate(41.113281 0)"/>
     <use xlink:href="#DejaVuSans-72" transform="translate(104.492188 0)"/>
     <use xlink:href="#DejaVuSans-61" transform="translate(145.605469 0)"/>
     <use xlink:href="#DejaVuSans-6c" transform="translate(206.884766 0)"/>
     <use xlink:href="#DejaVuSans-20" transform="translate(234.667969 0)"/>
     <use xlink:href="#DejaVuSans-72" transform="translate(266.455078 0)"/>
     <use xlink:href="#DejaVuSans-65" transform="translate(305.318359 0)"/>
     <use xlink:href="#DejaVuSans-66" transform="translate(366.841797 0)"/>
     <use xlink:href="#DejaVuSans-65" transform="translate(402.046875 0)"/>
     <use xlink:href="#DejaVuSans-72" transform="translate(463.570312 0)"/>
     <use xlink:href="#DejaVuSans-65" transform="translate(502.433594 0)"/>
     <use xlink:href="#DejaVuSans-6e" transform="translate(563.957031 0)"/>
     <use xlink:href="#DejaVuSans-63" transform="translate(627.335938 0)"/>
     <use xlink:href="#DejaVuSans-65" transform="translate(682.316406 0)"/>
    </g>
    <!-- $z_R$ -->
    <g style="fill: #2563eb" transform="translate(234.693451 126.235922) scale(0.08 -0.08)">
     <defs>
      <path id="DejaVuSans-52" d="M 2841 2188 
Q 3044 2119 3236 1894 
Q 3428 1669 3622 1275 
L 4263 0 
L 3584 0 
L 2988 1197 
Q 2756 1666 2539 1819 
Q 2322 1972 1947 1972 
L 1259 1972 
L 1259 0 
L 628 0 
L 628 4666 
L 2053 4666 
Q 2853 4666 3247 4331 
Q 3641 3997 3641 3322 
Q 3641 2881 3436 2590 
Q 3231 2300 2841 2188 
z
M 1259 4147 
L 1259 2491 
L 2053 2491 
Q 2509 2491 2742 2702 
Q 2975 2913 2975 3322 
Q 2975 3731 2742 3939 
Q 2509 4147 2053 4147 
L 1259 4147 
z
" transform="scale(0.015625)"/>
     </defs>
     <use xlink:href="#DejaVuSans-7a" transform="translate(0 0.3125)"/>
     <use xlink:href="#DejaVuSans-52" transform="translate(53.447266 -16.09375) scale(0.7)"/>
    </g>
   </g>
   <g id="patch_6">
    <path d="M 238.893451 204.469352 
Q 238.893451 178.782436 238.893451 153.095521 
" style="fill: none; stroke: #555555; stroke-width: 1.2; stroke-linecap: round"/>
    <path d="M 240.693451 200.869352 
L 238.893451 204.469352 
L 237.093451 200.869352 
" style="fill: none; stroke: #555555; stroke-width: 1.2; stroke-linecap: round"/>
    <path d="M 237.093451 156.695521 
L 238.893451 153.095521 
L 240.693451 156.695521 
" style="fill: none; stroke: #555555; stroke-width: 1.2; stroke-linecap: round"/>
   </g>
   <g id="text_3">
    <!-- Δz -->
    <g style="fill: #555555" transform="translate(248.322836 178.782744) scale(0.11 -0.11)">
     <defs>
      <path id="DejaVuSans-394" d="M 2188 4044 
L 906 525 
L 3472 525 
L 2188 4044 
z
M 50 0 
L 1831 4666 
L 2547 4666 
L 4325 0 
L 50 0 
z
" transform="scale(0.015625)"/>
     </defs>
     <use xlink:href="#DejaVuSans-394"/>
     <use xlink:href="#DejaVuSans-7a" transform="translate(68.408203 0)"/>
    </g>
   </g>
   <g id="text_4">
    <!-- a  In terrain, the rural reference sits above the urban core -->
    <g transform="translate(7.2 15.75) scale(0.095 -0.095)">
     <defs>
      <path id="DejaVuSans-49" d="M 628 4666 
L 1259 4666 
L 1259 0 
L 628 0 
L 628 4666 
z
" transform="scale(0.015625)"/>
      <path id="DejaVuSans-74" d="M 1172 4494 
L 1172 3500 
L 2356 3500 
L 2356 3053 
L 1172 3053 
L 1172 1153 
Q 1172 725 1289 603 
Q 1406 481 1766 481 
L 2356 481 
L 2356 0 
L 1766 0 
Q 1100 0 847 248 
Q 594 497 594 1153 
L 594 3053 
L 172 3053 
L 172 3500 
L 594 3500 
L 594 4494 
L 1172 4494 
z
" transform="scale(0.015625)"/>
      <path id="DejaVuSans-69" d="M 603 3500 
L 1178 3500 
L 1178 0 
L 603 0 
L 603 3500 
z
M 603 4863 
L 1178 4863 
L 1178 4134 
L 603 4134 
L 603 4863 
z
" transform="scale(0.015625)"/>
      <path id="DejaVuSans-2c" d="M 750 794 
L 1409 794 
L 1409 256 
L 897 -744 
L 494 -744 
L 750 256 
L 750 794 
z
" transform="scale(0.015625)"/>
      <path id="DejaVuSans-68" d="M 3513 2113 
L 3513 0 
L 2938 0 
L 2938 2094 
Q 2938 2591 2744 2837 
Q 2550 3084 2163 3084 
Q 1697 3084 1428 2787 
Q 1159 2491 1159 1978 
L 1159 0 
L 581 0 
L 581 4863 
L 1159 4863 
L 1159 2956 
Q 1366 3272 1645 3428 
Q 1925 3584 2291 3584 
Q 2894 3584 3203 3211 
Q 3513 2838 3513 2113 
z
" transform="scale(0.015625)"/>
      <path id="DejaVuSans-73" d="M 2834 3397 
L 2834 2853 
Q 2591 2978 2328 3040 
Q 2066 3103 1784 3103 
Q 1356 3103 1142 2972 
Q 928 2841 928 2578 
Q 928 2378 1081 2264 
Q 1234 2150 1697 2047 
L 1894 2003 
Q 2506 1872 2764 1633 
Q 3022 1394 3022 966 
Q 3022 478 2636 193 
Q 2250 -91 1575 -91 
Q 1294 -91 989 -36 
Q 684 19 347 128 
L 347 722 
Q 666 556 975 473 
Q 1284 391 1588 391 
Q 1994 391 2212 530 
Q 2431 669 2431 922 
Q 2431 1156 2273 1281 
Q 2116 1406 1581 1522 
L 1381 1569 
Q 847 1681 609 1914 
Q 372 2147 372 2553 
Q 372 3047 722 3315 
Q 1072 3584 1716 3584 
Q 2034 3584 2315 3537 
Q 2597 3491 2834 3397 
z
" transform="scale(0.015625)"/>
      <path id="DejaVuSans-76" d="M 191 3500 
L 800 3500 
L 1894 563 
L 2988 3500 
L 3597 3500 
L 2284 0 
L 1503 0 
L 191 3500 
z
" transform="scale(0.015625)"/>
     </defs>
     <use xlink:href="#DejaVuSans-61"/>
     <use xlink:href="#DejaVuSans-20" transform="translate(61.279297 0)"/>
     <use xlink:href="#DejaVuSans-20" transform="translate(93.066406 0)"/>
     <use xlink:href="#DejaVuSans-49" transform="translate(124.853516 0)"/>
     <use xlink:href="#DejaVuSans-6e" transform="translate(154.345703 0)"/>
     <use xlink:href="#DejaVuSans-20" transform="translate(217.724609 0)"/>
     <use xlink:href="#DejaVuSans-74" transform="translate(249.511719 0)"/>
     <use xlink:href="#DejaVuSans-65" transform="translate(288.720703 0)"/>
     <use xlink:href="#DejaVuSans-72" transform="translate(350.244141 0)"/>
     <use xlink:href="#DejaVuSans-72" transform="translate(389.607422 0)"/>
     <use xlink:href="#DejaVuSans-61" transform="translate(430.720703 0)"/>
     <use xlink:href="#DejaVuSans-69" transform="translate(492 0)"/>
     <use xlink:href="#DejaVuSans-6e" transform="translate(519.783203 0)"/>
     <use xlink:href="#DejaVuSans-2c" transform="translate(583.162109 0)"/>
     <use xlink:href="#DejaVuSans-20" transform="translate(614.949219 0)"/>
     <use xlink:href="#DejaVuSans-74" transform="translate(646.736328 0)"/>
     <use xlink:href="#DejaVuSans-68" transform="translate(685.945312 0)"/>
     <use xlink:href="#DejaVuSans-65" transform="translate(749.324219 0)"/>
     <use xlink:href="#DejaVuSans-20" transform="translate(810.847656 0)"/>
     <use xlink:href="#DejaVuSans-72" transform="translate(842.634766 0)"/>
     <use xlink:href="#DejaVuSans-75" transform="translate(883.748047 0)"/>
     <use xlink:href="#DejaVuSans-72" transform="translate(947.126953 0)"/>
     <use xlink:href="#DejaVuSans-61" transform="translate(988.240234 0)"/>
     <use xlink:href="#DejaVuSans-6c" transform="translate(1049.519531 0)"/>
     <use xlink:href="#DejaVuSans-20" transform="translate(1077.302734 0)"/>
     <use xlink:href="#DejaVuSans-72" transform="translate(1109.089844 0)"/>
     <use xlink:href="#DejaVuSans-65" transform="translate(1147.953125 0)"/>
     <use xlink:href="#DejaVuSans-66" transform="translate(1209.476562 0)"/>
     <use xlink:href="#DejaVuSans-65" transform="translate(1244.681641 0)"/>
     <use xlink:href="#DejaVuSans-72" transform="translate(1306.205078 0)"/>
     <use xlink:href="#DejaVuSans-65" transform="translate(1345.068359 0)"/>
     <use xlink:href="#DejaVuSans-6e" transform="translate(1406.591797 0)"/>
     <use xlink:href="#DejaVuSans-63" transform="translate(1469.970703 0)"/>
     <use xlink:href="#DejaVuSans-65" transform="translate(1524.951172 0)"/>
     <use xlink:href="#DejaVuSans-20" transform="translate(1586.474609 0)"/>
     <use xlink:href="#DejaVuSans-73" transform="translate(1618.261719 0)"/>
     <use xlink:href="#DejaVuSans-69" transform="translate(1670.361328 0)"/>
     <use xlink:href="#DejaVuSans-74" transform="translate(1698.144531 0)"/>
     <use xlink:href="#DejaVuSans-73" transform="translate(1737.353516 0)"/>
     <use xlink:href="#DejaVuSans-20" transform="translate(1789.453125 0)"/>
     <use xlink:href="#DejaVuSans-61" transform="translate(1821.240234 0)"/>
     <use xlink:href="#DejaVuSans-62" transform="translate(1882.519531 0)"/>
     <use xlink:href="#DejaVuSans-6f" transform="translate(1945.996094 0)"/>
     <use xlink:href="#DejaVuSans-76" transform="translate(2007.177734 0)"/>
     <use xlink:href="#DejaVuSans-65" transform="translate(2066.357422 0)"/>
     <use xlink:href="#DejaVuSans-20" transform="translate(2127.880859 0)"/>
     <use xlink:href="#DejaVuSans-74" transform="translate(2159.667969 0)"/>
     <use xlink:href="#DejaVuSans-68" transform="translate(2198.876953 0)"/>
     <use xlink:href="#DejaVuSans-65" transform="translate(2262.255859 0)"/>
     <use xlink:href="#DejaVuSans-20" transform="translate(2323.779297 0)"/>
     <use xlink:href="#DejaVuSans-75" transform="translate(2355.566406 0)"/>
     <use xlink:href="#DejaVuSans-72" transform="translate(2418.945312 0)"/>
     <use xlink:href="#DejaVuSans-62" transform="translate(2460.058594 0)"/>
     <use xlink:href="#DejaVuSans-61" transform="translate(2523.535156 0)"/>
     <use xlink:href="#DejaVuSans-6e" transform="translate(2584.814453 0)"/>
     <use xlink:href="#DejaVuSans-20" transform="translate(2648.193359 0)"/>
     <use xlink:href="#DejaVuSans-63" transform="translate(2679.980469 0)"/>
     <use xlink:href="#DejaVuSans-6f" transform="translate(2734.960938 0)"/>
     <use xlink:href="#DejaVuSans-72" transform="translate(2796.142578 0)"/>
     <use xlink:href="#DejaVuSans-65" transform="translate(2835.005859 0)"/>
    </g>
   </g>
  </g>
  <g id="axes_2">
   <g id="patch_7">
    <path d="M 342.089574 260.142 
L 576.36 260.142 
L 576.36 21.75 
L 342.089574 21.75 
z
" style="fill: #ffffff"/>
   </g>
   <g id="line2d_1">
    <path d="M 373.74774 296.762625 
L 373.74774 75.3882 
" clip-path="url(#p84ca029e26)" style="fill: none; stroke: #dddddd; stroke-width: 0.8; stroke-linecap: square"/>
   </g>
   <g id="line2d_2">
    <path d="M 475.05387 296.762625 
L 475.05387 170.745 
" clip-path="url(#p84ca029e26)" style="fill: none; stroke: #dddddd; stroke-width: 0.8; stroke-linecap: square"/>
   </g>
   <g id="matplotlib.axis_1">
    <g id="xtick_1">
     <g id="line2d_3">
      <defs>
       <path id="m3c45f569cd" d="M 0 0 
L 0 3.5 
" style="stroke: #000000; stroke-width: 0.8"/>
      </defs>
      <g>
       <use xlink:href="#m3c45f569cd" x="342.089574" y="260.142" style="stroke: #000000; stroke-width: 0.8"/>
      </g>
     </g>
     <g id="text_5">
      <!-- 0.00 -->
      <g transform="translate(332.070043 273.980594) scale(0.09 -0.09)">
       <defs>
        <path id="DejaVuSans-30" d="M 2034 4250 
Q 1547 4250 1301 3770 
Q 1056 3291 1056 2328 
Q 1056 1369 1301 889 
Q 1547 409 2034 409 
Q 2525 409 2770 889 
Q 3016 1369 3016 2328 
Q 3016 3291 2770 3770 
Q 2525 4250 2034 4250 
z
M 2034 4750 
Q 2819 4750 3233 4129 
Q 3647 3509 3647 2328 
Q 3647 1150 3233 529 
Q 2819 -91 2034 -91 
Q 1250 -91 836 529 
Q 422 1150 422 2328 
Q 422 3509 836 4129 
Q 1250 4750 2034 4750 
z
" transform="scale(0.015625)"/>
        <path id="DejaVuSans-2e" d="M 684 794 
L 1344 794 
L 1344 0 
L 684 0 
L 684 794 
z
" transform="scale(0.015625)"/>
       </defs>
       <use xlink:href="#DejaVuSans-30"/>
       <use xlink:href="#DejaVuSans-2e" transform="translate(63.623047 0)"/>
       <use xlink:href="#DejaVuSans-30" transform="translate(95.410156 0)"/>
       <use xlink:href="#DejaVuSans-30" transform="translate(159.033203 0)"/>
      </g>
     </g>
    </g>
    <g id="xtick_2">
     <g id="line2d_4">
      <g>
       <use xlink:href="#m3c45f569cd" x="373.74774" y="260.142" style="stroke: #000000; stroke-width: 0.8"/>
      </g>
     </g>
     <g id="text_6">
      <!-- 0.25 -->
      <g transform="translate(363.728208 273.980594) scale(0.09 -0.09)">
       <defs>
        <path id="DejaVuSans-32" d="M 1228 531 
L 3431 531 
L 3431 0 
L 469 0 
L 469 531 
Q 828 903 1448 1529 
Q 2069 2156 2228 2338 
Q 2531 2678 2651 2914 
Q 2772 3150 2772 3378 
Q 2772 3750 2511 3984 
Q 2250 4219 1831 4219 
Q 1534 4219 1204 4116 
Q 875 4013 500 3803 
L 500 4441 
Q 881 4594 1212 4672 
Q 1544 4750 1819 4750 
Q 2544 4750 2975 4387 
Q 3406 4025 3406 3419 
Q 3406 3131 3298 2873 
Q 3191 2616 2906 2266 
Q 2828 2175 2409 1742 
Q 1991 1309 1228 531 
z
" transform="scale(0.015625)"/>
        <path id="DejaVuSans-35" d="M 691 4666 
L 3169 4666 
L 3169 4134 
L 1269 4134 
L 1269 2991 
Q 1406 3038 1543 3061 
Q 1681 3084 1819 3084 
Q 2600 3084 3056 2656 
Q 3513 2228 3513 1497 
Q 3513 744 3044 326 
Q 2575 -91 1722 -91 
Q 1428 -91 1123 -41 
Q 819 9 494 109 
L 494 744 
Q 775 591 1075 516 
Q 1375 441 1709 441 
Q 2250 441 2565 725 
Q 2881 1009 2881 1497 
Q 2881 1984 2565 2268 
Q 2250 2553 1709 2553 
Q 1456 2553 1204 2497 
Q 953 2441 691 2322 
L 691 4666 
z
" transform="scale(0.015625)"/>
       </defs>
       <use xlink:href="#DejaVuSans-30"/>
       <use xlink:href="#DejaVuSans-2e" transform="translate(63.623047 0)"/>
       <use xlink:href="#DejaVuSans-32" transform="translate(95.410156 0)"/>
       <use xlink:href="#DejaVuSans-35" transform="translate(159.033203 0)"/>
      </g>
     </g>
    </g>
    <g id="xtick_3">
     <g id="line2d_5">
      <g>
       <use xlink:href="#m3c45f569cd" x="405.405905" y="260.142" style="stroke: #000000; stroke-width: 0.8"/>
      </g>
     </g>
     <g id="text_7">
      <!-- 0.50 -->
      <g transform="translate(395.386374 273.980594) scale(0.09 -0.09)">
       <use xlink:href="#DejaVuSans-30"/>
       <use xlink:href="#DejaVuSans-2e" transform="translate(63.623047 0)"/>
       <use xlink:href="#DejaVuSans-35" transform="translate(95.410156 0)"/>
       <use xlink:href="#DejaVuSans-30" transform="translate(159.033203 0)"/>
      </g>
     </g>
    </g>
    <g id="xtick_4">
     <g id="line2d_6">
      <g>
       <use xlink:href="#m3c45f569cd" x="437.064071" y="260.142" style="stroke: #000000; stroke-width: 0.8"/>
      </g>
     </g>
     <g id="text_8">
      <!-- 0.75 -->
      <g transform="translate(427.04454 273.980594) scale(0.09 -0.09)">
       <defs>
        <path id="DejaVuSans-37" d="M 525 4666 
L 3525 4666 
L 3525 4397 
L 1831 0 
L 1172 0 
L 2766 4134 
L 525 4134 
L 525 4666 
z
" transform="scale(0.015625)"/>
       </defs>
       <use xlink:href="#DejaVuSans-30"/>
       <use xlink:href="#DejaVuSans-2e" transform="translate(63.623047 0)"/>
       <use xlink:href="#DejaVuSans-37" transform="translate(95.410156 0)"/>
       <use xlink:href="#DejaVuSans-35" transform="translate(159.033203 0)"/>
      </g>
     </g>
    </g>
    <g id="xtick_5">
     <g id="line2d_7">
      <g>
       <use xlink:href="#m3c45f569cd" x="468.722237" y="260.142" style="stroke: #000000; stroke-width: 0.8"/>
      </g>
     </g>
     <g id="text_9">
      <!-- 1.00 -->
      <g transform="translate(458.702705 273.980594) scale(0.09 -0.09)">
       <defs>
        <path id="DejaVuSans-31" d="M 794 531 
L 1825 531 
L 1825 4091 
L 703 3866 
L 703 4441 
L 1819 4666 
L 2450 4666 
L 2450 531 
L 3481 531 
L 3481 0 
L 794 0 
L 794 531 
z
" transform="scale(0.015625)"/>
       </defs>
       <use xlink:href="#DejaVuSans-31"/>
       <use xlink:href="#DejaVuSans-2e" transform="translate(63.623047 0)"/>
       <use xlink:href="#DejaVuSans-30" transform="translate(95.410156 0)"/>
       <use xlink:href="#DejaVuSans-30" transform="translate(159.033203 0)"/>
      </g>
     </g>
    </g>
    <g id="xtick_6">
     <g id="line2d_8">
      <g>
       <use xlink:href="#m3c45f569cd" x="500.380402" y="260.142" style="stroke: #000000; stroke-width: 0.8"/>
      </g>
     </g>
     <g id="text_10">
      <!-- 1.25 -->
      <g transform="translate(490.360871 273.980594) scale(0.09 -0.09)">
       <use xlink:href="#DejaVuSans-31"/>
       <use xlink:href="#DejaVuSans-2e" transform="translate(63.623047 0)"/>
       <use xlink:href="#DejaVuSans-32" transform="translate(95.410156 0)"/>
       <use xlink:href="#DejaVuSans-35" transform="translate(159.033203 0)"/>
      </g>
     </g>
    </g>
    <g id="xtick_7">
     <g id="line2d_9">
      <g>
       <use xlink:href="#m3c45f569cd" x="532.038568" y="260.142" style="stroke: #000000; stroke-width: 0.8"/>
      </g>
     </g>
     <g id="text_11">
      <!-- 1.50 -->
      <g transform="translate(522.019037 273.980594) scale(0.09 -0.09)">
       <use xlink:href="#DejaVuSans-31"/>
       <use xlink:href="#DejaVuSans-2e" transform="translate(63.623047 0)"/>
       <use xlink:href="#DejaVuSans-35" transform="translate(95.410156 0)"/>
       <use xlink:href="#DejaVuSans-30" transform="translate(159.033203 0)"/>
      </g>
     </g>
    </g>
    <g id="xtick_8">
     <g id="line2d_10">
      <g>
       <use xlink:href="#m3c45f569cd" x="563.696734" y="260.142" style="stroke: #000000; stroke-width: 0.8"/>
      </g>
     </g>
     <g id="text_12">
      <!-- 1.75 -->
      <g transform="translate(553.677202 273.980594) scale(0.09 -0.09)">
       <use xlink:href="#DejaVuSans-31"/>
       <use xlink:href="#DejaVuSans-2e" transform="translate(63.623047 0)"/>
       <use xlink:href="#DejaVuSans-37" transform="translate(95.410156 0)"/>
       <use xlink:href="#DejaVuSans-35" transform="translate(159.033203 0)"/>
      </g>
     </g>
    </g>
    <g id="text_13">
     <!-- elevation (km) -->
     <g transform="translate(426.46549 286.690906) scale(0.09 -0.09)">
      <defs>
       <path id="DejaVuSans-28" d="M 1984 4856 
Q 1566 4138 1362 3434 
Q 1159 2731 1159 2009 
Q 1159 1288 1364 580 
Q 1569 -128 1984 -844 
L 1484 -844 
Q 1016 -109 783 600 
Q 550 1309 550 2009 
Q 550 2706 781 3412 
Q 1013 4119 1484 4856 
L 1984 4856 
z
" transform="scale(0.015625)"/>
       <path id="DejaVuSans-6b" d="M 581 4863 
L 1159 4863 
L 1159 1991 
L 2875 3500 
L 3609 3500 
L 1753 1863 
L 3688 0 
L 2938 0 
L 1159 1709 
L 1159 0 
L 581 0 
L 581 4863 
z
" transform="scale(0.015625)"/>
       <path id="DejaVuSans-6d" d="M 3328 2828 
Q 3544 3216 3844 3400 
Q 4144 3584 4550 3584 
Q 5097 3584 5394 3201 
Q 5691 2819 5691 2113 
L 5691 0 
L 5113 0 
L 5113 2094 
Q 5113 2597 4934 2840 
Q 4756 3084 4391 3084 
Q 3944 3084 3684 2787 
Q 3425 2491 3425 1978 
L 3425 0 
L 2847 0 
L 2847 2094 
Q 2847 2600 2669 2842 
Q 2491 3084 2119 3084 
Q 1678 3084 1418 2786 
Q 1159 2488 1159 1978 
L 1159 0 
L 581 0 
L 581 3500 
L 1159 3500 
L 1159 2956 
Q 1356 3278 1631 3431 
Q 1906 3584 2284 3584 
Q 2666 3584 2933 3390 
Q 3200 3197 3328 2828 
z
" transform="scale(0.015625)"/>
       <path id="DejaVuSans-29" d="M 513 4856 
L 1013 4856 
Q 1481 4119 1714 3412 
Q 1947 2706 1947 2009 
Q 1947 1309 1714 600 
Q 1481 -109 1013 -844 
L 513 -844 
Q 928 -128 1133 580 
Q 1338 1288 1338 2009 
Q 1338 2731 1133 3434 
Q 928 4138 513 4856 
z
" transform="scale(0.015625)"/>
      </defs>
      <use xlink:href="#DejaVuSans-65"/>
      <use xlink:href="#DejaVuSans-6c" transform="translate(61.523438 0)"/>
      <use xlink:href="#DejaVuSans-65" transform="translate(89.306641 0)"/>
      <use xlink:href="#DejaVuSans-76" transform="translate(150.830078 0)"/>
      <use xlink:href="#DejaVuSans-61" transform="translate(210.009766 0)"/>
      <use xlink:href="#DejaVuSans-74" transform="translate(271.289062 0)"/>
      <use xlink:href="#DejaVuSans-69" transform="translate(310.498047 0)"/>
      <use xlink:href="#DejaVuSans-6f" transform="translate(338.28125 0)"/>
      <use xlink:href="#DejaVuSans-6e" transform="translate(399.462891 0)"/>
      <use xlink:href="#DejaVuSans-20" transform="translate(462.841797 0)"/>
      <use xlink:href="#DejaVuSans-28" transform="translate(494.628906 0)"/>
      <use xlink:href="#DejaVuSans-6b" transform="translate(533.642578 0)"/>
      <use xlink:href="#DejaVuSans-6d" transform="translate(591.552734 0)"/>
      <use xlink:href="#DejaVuSans-29" transform="translate(688.964844 0)"/>
     </g>
    </g>
   </g>
   <g id="matplotlib.axis_2">
    <g id="ytick_1">
     <g id="line2d_11">
      <defs>
       <path id="m15d6f9e706" d="M 0 0 
L -3.5 0 
" style="stroke: #000000; stroke-width: 0.8"/>
      </defs>
      <g>
       <use xlink:href="#m15d6f9e706" x="342.089574" y="260.142" style="stroke: #000000; stroke-width: 0.8"/>
      </g>
     </g>
     <g id="text_14">
      <!-- 22 -->
      <g transform="translate(323.637074 263.561297) scale(0.09 -0.09)">
       <use xlink:href="#DejaVuSans-32"/>
       <use xlink:href="#DejaVuSans-32" transform="translate(63.623047 0)"/>
      </g>
     </g>
    </g>
    <g id="ytick_2">
     <g id="line2d_12">
      <g>
       <use xlink:href="#m15d6f9e706" x="342.089574" y="212.4636" style="stroke: #000000; stroke-width: 0.8"/>
      </g>
     </g>
     <g id="text_15">
      <!-- 24 -->
      <g transform="translate(323.637074 215.882897) scale(0.09 -0.09)">
       <defs>
        <path id="DejaVuSans-34" d="M 2419 4116 
L 825 1625 
L 2419 1625 
L 2419 4116 
z
M 2253 4666 
L 3047 4666 
L 3047 1625 
L 3713 1625 
L 3713 1100 
L 3047 1100 
L 3047 0 
L 2419 0 
L 2419 1100 
L 313 1100 
L 313 1709 
L 2253 4666 
z
" transform="scale(0.015625)"/>
       </defs>
       <use xlink:href="#DejaVuSans-32"/>
       <use xlink:href="#DejaVuSans-34" transform="translate(63.623047 0)"/>
      </g>
     </g>
    </g>
    <g id="ytick_3">
     <g id="line2d_13">
      <g>
       <use xlink:href="#m15d6f9e706" x="342.089574" y="164.7852" style="stroke: #000000; stroke-width: 0.8"/>
      </g>
     </g>
     <g id="text_16">
      <!-- 26 -->
      <g transform="translate(323.637074 168.204497) scale(0.09 -0.09)">
       <defs>
        <path id="DejaVuSans-36" d="M 2113 2584 
Q 1688 2584 1439 2293 
Q 1191 2003 1191 1497 
Q 1191 994 1439 701 
Q 1688 409 2113 409 
Q 2538 409 2786 701 
Q 3034 994 3034 1497 
Q 3034 2003 2786 2293 
Q 2538 2584 2113 2584 
z
M 3366 4563 
L 3366 3988 
Q 3128 4100 2886 4159 
Q 2644 4219 2406 4219 
Q 1781 4219 1451 3797 
Q 1122 3375 1075 2522 
Q 1259 2794 1537 2939 
Q 1816 3084 2150 3084 
Q 2853 3084 3261 2657 
Q 3669 2231 3669 1497 
Q 3669 778 3244 343 
Q 2819 -91 2113 -91 
Q 1303 -91 875 529 
Q 447 1150 447 2328 
Q 447 3434 972 4092 
Q 1497 4750 2381 4750 
Q 2619 4750 2861 4703 
Q 3103 4656 3366 4563 
z
" transform="scale(0.015625)"/>
       </defs>
       <use xlink:href="#DejaVuSans-32"/>
       <use xlink:href="#DejaVuSans-36" transform="translate(63.623047 0)"/>
      </g>
     </g>
    </g>
    <g id="ytick_4">
     <g id="line2d_14">
      <g>
       <use xlink:href="#m15d6f9e706" x="342.089574" y="117.1068" style="stroke: #000000; stroke-width: 0.8"/>
      </g>
     </g>
     <g id="text_17">
      <!-- 28 -->
      <g transform="translate(323.637074 120.526097) scale(0.09 -0.09)">
       <defs>
        <path id="DejaVuSans-38" d="M 2034 2216 
Q 1584 2216 1326 1975 
Q 1069 1734 1069 1313 
Q 1069 891 1326 650 
Q 1584 409 2034 409 
Q 2484 409 2743 651 
Q 3003 894 3003 1313 
Q 3003 1734 2745 1975 
Q 2488 2216 2034 2216 
z
M 1403 2484 
Q 997 2584 770 2862 
Q 544 3141 544 3541 
Q 544 4100 942 4425 
Q 1341 4750 2034 4750 
Q 2731 4750 3128 4425 
Q 3525 4100 3525 3541 
Q 3525 3141 3298 2862 
Q 3072 2584 2669 2484 
Q 3125 2378 3379 2068 
Q 3634 1759 3634 1313 
Q 3634 634 3220 271 
Q 2806 -91 2034 -91 
Q 1263 -91 848 271 
Q 434 634 434 1313 
Q 434 1759 690 2068 
Q 947 2378 1403 2484 
z
M 1172 3481 
Q 1172 3119 1398 2916 
Q 1625 2713 2034 2713 
Q 2441 2713 2670 2916 
Q 2900 3119 2900 3481 
Q 2900 3844 2670 4047 
Q 2441 4250 2034 4250 
Q 1625 4250 1398 4047 
Q 1172 3844 1172 3481 
z
" transform="scale(0.015625)"/>
       </defs>
       <use xlink:href="#DejaVuSans-32"/>
       <use xlink:href="#DejaVuSans-38" transform="translate(63.623047 0)"/>
      </g>
     </g>
    </g>
    <g id="ytick_5">
     <g id="line2d_15">
      <g>
       <use xlink:href="#m15d6f9e706" x="342.089574" y="69.4284" style="stroke: #000000; stroke-width: 0.8"/>
      </g>
     </g>
     <g id="text_18">
      <!-- 30 -->
      <g transform="translate(323.637074 72.847697) scale(0.09 -0.09)">
       <defs>
        <path id="DejaVuSans-33" d="M 2597 2516 
Q 3050 2419 3304 2112 
Q 3559 1806 3559 1356 
Q 3559 666 3084 287 
Q 2609 -91 1734 -91 
Q 1441 -91 1130 -33 
Q 819 25 488 141 
L 488 750 
Q 750 597 1062 519 
Q 1375 441 1716 441 
Q 2309 441 2620 675 
Q 2931 909 2931 1356 
Q 2931 1769 2642 2001 
Q 2353 2234 1838 2234 
L 1294 2234 
L 1294 2753 
L 1863 2753 
Q 2328 2753 2575 2939 
Q 2822 3125 2822 3475 
Q 2822 3834 2567 4026 
Q 2313 4219 1838 4219 
Q 1578 4219 1281 4162 
Q 984 4106 628 3988 
L 628 4550 
Q 988 4650 1302 4700 
Q 1616 4750 1894 4750 
Q 2613 4750 3031 4423 
Q 3450 4097 3450 3541 
Q 3450 3153 3228 2886 
Q 3006 2619 2597 2516 
z
" transform="scale(0.015625)"/>
       </defs>
       <use xlink:href="#DejaVuSans-33"/>
       <use xlink:href="#DejaVuSans-30" transform="translate(63.623047 0)"/>
      </g>
     </g>
    </g>
    <g id="ytick_6">
     <g id="line2d_16">
      <g>
       <use xlink:href="#m15d6f9e706" x="342.089574" y="21.75" style="stroke: #000000; stroke-width: 0.8"/>
      </g>
     </g>
     <g id="text_19">
      <!-- 32 -->
      <g transform="translate(323.637074 25.169297) scale(0.09 -0.09)">
       <use xlink:href="#DejaVuSans-33"/>
       <use xlink:href="#DejaVuSans-32" transform="translate(63.623047 0)"/>
      </g>
     </g>
    </g>
    <g id="text_20">
     <!-- land-surface temperature (°C) -->
     <g transform="translate(317.765355 208.964203) rotate(-90) scale(0.09 -0.09)">
      <defs>
       <path id="DejaVuSans-64" d="M 2906 2969 
L 2906 4863 
L 3481 4863 
L 3481 0 
L 2906 0 
L 2906 525 
Q 2725 213 2448 61 
Q 2172 -91 1784 -91 
Q 1150 -91 751 415 
Q 353 922 353 1747 
Q 353 2572 751 3078 
Q 1150 3584 1784 3584 
Q 2172 3584 2448 3432 
Q 2725 3281 2906 2969 
z
M 947 1747 
Q 947 1113 1208 752 
Q 1469 391 1925 391 
Q 2381 391 2643 752 
Q 2906 1113 2906 1747 
Q 2906 2381 2643 2742 
Q 2381 3103 1925 3103 
Q 1469 3103 1208 2742 
Q 947 2381 947 1747 
z
" transform="scale(0.015625)"/>
       <path id="DejaVuSans-2d" d="M 313 2009 
L 1997 2009 
L 1997 1497 
L 313 1497 
L 313 2009 
z
" transform="scale(0.015625)"/>
       <path id="DejaVuSans-70" d="M 1159 525 
L 1159 -1331 
L 581 -1331 
L 581 3500 
L 1159 3500 
L 1159 2969 
Q 1341 3281 1617 3432 
Q 1894 3584 2278 3584 
Q 2916 3584 3314 3078 
Q 3713 2572 3713 1747 
Q 3713 922 3314 415 
Q 2916 -91 2278 -91 
Q 1894 -91 1617 61 
Q 1341 213 1159 525 
z
M 3116 1747 
Q 3116 2381 2855 2742 
Q 2594 3103 2138 3103 
Q 1681 3103 1420 2742 
Q 1159 2381 1159 1747 
Q 1159 1113 1420 752 
Q 1681 391 2138 391 
Q 2594 391 2855 752 
Q 3116 1113 3116 1747 
z
" transform="scale(0.015625)"/>
       <path id="DejaVuSans-b0" d="M 1600 4347 
Q 1350 4347 1178 4173 
Q 1006 4000 1006 3750 
Q 1006 3503 1178 3333 
Q 1350 3163 1600 3163 
Q 1850 3163 2022 3333 
Q 2194 3503 2194 3750 
Q 2194 3997 2020 4172 
Q 1847 4347 1600 4347 
z
M 1600 4750 
Q 1800 4750 1984 4673 
Q 2169 4597 2303 4453 
Q 2447 4313 2519 4134 
Q 2591 3956 2591 3750 
Q 2591 3338 2302 3052 
Q 2013 2766 1594 2766 
Q 1172 2766 890 3047 
Q 609 3328 609 3750 
Q 609 4169 896 4459 
Q 1184 4750 1600 4750 
z
" transform="scale(0.015625)"/>
       <path id="DejaVuSans-43" d="M 4122 4306 
L 4122 3641 
Q 3803 3938 3442 4084 
Q 3081 4231 2675 4231 
Q 1875 4231 1450 3742 
Q 1025 3253 1025 2328 
Q 1025 1406 1450 917 
Q 1875 428 2675 428 
Q 3081 428 3442 575 
Q 3803 722 4122 1019 
L 4122 359 
Q 3791 134 3420 21 
Q 3050 -91 2638 -91 
Q 1578 -91 968 557 
Q 359 1206 359 2328 
Q 359 3453 968 4101 
Q 1578 4750 2638 4750 
Q 3056 4750 3426 4639 
Q 3797 4528 4122 4306 
z
" transform="scale(0.015625)"/>
      </defs>
      <use xlink:href="#DejaVuSans-6c"/>
      <use xlink:href="#DejaVuSans-61" transform="translate(27.783203 0)"/>
      <use xlink:href="#DejaVuSans-6e" transform="translate(89.0625 0)"/>
      <use xlink:href="#DejaVuSans-64" transform="translate(152.441406 0)"/>
      <use xlink:href="#DejaVuSans-2d" transform="translate(215.917969 0)"/>
      <use xlink:href="#DejaVuSans-73" transform="translate(252.001953 0)"/>
      <use xlink:href="#DejaVuSans-75" transform="translate(304.101562 0)"/>
      <use xlink:href="#DejaVuSans-72" transform="translate(367.480469 0)"/>
      <use xlink:href="#DejaVuSans-66" transform="translate(408.59375 0)"/>
      <use xlink:href="#DejaVuSans-61" transform="translate(443.798828 0)"/>
      <use xlink:href="#DejaVuSans-63" transform="translate(505.078125 0)"/>
      <use xlink:href="#DejaVuSans-65" transform="translate(560.058594 0)"/>
      <use xlink:href="#DejaVuSans-20" transform="translate(621.582031 0)"/>
      <use xlink:href="#DejaVuSans-74" transform="translate(653.369141 0)"/>
      <use xlink:href="#DejaVuSans-65" transform="translate(692.578125 0)"/>
      <use xlink:href="#DejaVuSans-6d" transform="translate(754.101562 0)"/>
      <use xlink:href="#DejaVuSans-70" transform="translate(851.513672 0)"/>
      <use xlink:href="#DejaVuSans-65" transform="translate(914.990234 0)"/>
      <use xlink:href="#DejaVuSans-72" transform="translate(976.513672 0)"/>
      <use xlink:href="#DejaVuSans-61" transform="translate(1017.626953 0)"/>
      <use xlink:href="#DejaVuSans-74" transform="translate(1078.90625 0)"/>
      <use xlink:href="#DejaVuSans-75" transform="translate(1118.115234 0)"/>
      <use xlink:href="#DejaVuSans-72" transform="translate(1181.494141 0)"/>
      <use xlink:href="#DejaVuSans-65" transform="translate(1220.357422 0)"/>
      <use xlink:href="#DejaVuSans-20" transform="translate(1281.880859 0)"/>
      <use xlink:href="#DejaVuSans-28" transform="translate(1313.667969 0)"/>
      <use xlink:href="#DejaVuSans-b0" transform="translate(1352.681641 0)"/>
      <use xlink:href="#DejaVuSans-43" transform="translate(1402.681641 0)"/>
      <use xlink:href="#DejaVuSans-29" transform="translate(1472.505859 0)"/>
     </g>
    </g>
   </g>
   <g id="line2d_17">
    <path d="M 342.089574 45.5892 
L 532.038568 224.3832 
" clip-path="url(#p84ca029e26)" style="fill: none; stroke: #333333; stroke-width: 2.2; stroke-linecap: square"/>
   </g>
   <g id="patch_8">
    <path d="M 342.089574 260.142 
L 342.089574 21.75 
" style="fill: none; stroke: #000000; stroke-width: 0.8; stroke-linejoin: miter; stroke-linecap: square"/>
   </g>
   <g id="patch_9">
    <path d="M 342.089574 260.142 
L 576.36 260.142 
" style="fill: none; stroke: #000000; stroke-width: 0.8; stroke-linejoin: miter; stroke-linecap: square"/>
   </g>
   <g id="text_21">
    <!-- LST-elevation -->
    <g style="fill: #333333" transform="translate(529.505915 222.111575) scale(0.08 -0.08)">
     <defs>
      <path id="DejaVuSans-4c" d="M 628 4666 
L 1259 4666 
L 1259 531 
L 3531 531 
L 3531 0 
L 628 0 
L 628 4666 
z
" transform="scale(0.015625)"/>
      <path id="DejaVuSans-53" d="M 3425 4513 
L 3425 3897 
Q 3066 4069 2747 4153 
Q 2428 4238 2131 4238 
Q 1616 4238 1336 4038 
Q 1056 3838 1056 3469 
Q 1056 3159 1242 3001 
Q 1428 2844 1947 2747 
L 2328 2669 
Q 3034 2534 3370 2195 
Q 3706 1856 3706 1288 
Q 3706 609 3251 259 
Q 2797 -91 1919 -91 
Q 1588 -91 1214 -16 
Q 841 59 441 206 
L 441 856 
Q 825 641 1194 531 
Q 1563 422 1919 422 
Q 2459 422 2753 634 
Q 3047 847 3047 1241 
Q 3047 1584 2836 1778 
Q 2625 1972 2144 2069 
L 1759 2144 
Q 1053 2284 737 2584 
Q 422 2884 422 3419 
Q 422 4038 858 4394 
Q 1294 4750 2059 4750 
Q 2388 4750 2728 4690 
Q 3069 4631 3425 4513 
z
" transform="scale(0.015625)"/>
      <path id="DejaVuSans-54" d="M -19 4666 
L 3928 4666 
L 3928 4134 
L 2272 4134 
L 2272 0 
L 1638 0 
L 1638 4134 
L -19 4134 
L -19 4666 
z
" transform="scale(0.015625)"/>
     </defs>
     <use xlink:href="#DejaVuSans-4c"/>
     <use xlink:href="#DejaVuSans-53" transform="translate(55.712891 0)"/>
     <use xlink:href="#DejaVuSans-54" transform="translate(119.189453 0)"/>
     <use xlink:href="#DejaVuSans-2d" transform="translate(171.148438 0)"/>
     <use xlink:href="#DejaVuSans-65" transform="translate(207.232422 0)"/>
     <use xlink:href="#DejaVuSans-6c" transform="translate(268.755859 0)"/>
     <use xlink:href="#DejaVuSans-65" transform="translate(296.539062 0)"/>
     <use xlink:href="#DejaVuSans-76" transform="translate(358.0625 0)"/>
     <use xlink:href="#DejaVuSans-61" transform="translate(417.242188 0)"/>
     <use xlink:href="#DejaVuSans-74" transform="translate(478.521484 0)"/>
     <use xlink:href="#DejaVuSans-69" transform="translate(517.730469 0)"/>
     <use xlink:href="#DejaVuSans-6f" transform="translate(545.513672 0)"/>
     <use xlink:href="#DejaVuSans-6e" transform="translate(606.695312 0)"/>
    </g>
    <!-- gradient -->
    <g style="fill: #333333" transform="translate(529.505915 231.069825) scale(0.08 -0.08)">
     <defs>
      <path id="DejaVuSans-67" d="M 2906 1791 
Q 2906 2416 2648 2759 
Q 2391 3103 1925 3103 
Q 1463 3103 1205 2759 
Q 947 2416 947 1791 
Q 947 1169 1205 825 
Q 1463 481 1925 481 
Q 2391 481 2648 825 
Q 2906 1169 2906 1791 
z
M 3481 434 
Q 3481 -459 3084 -895 
Q 2688 -1331 1869 -1331 
Q 1566 -1331 1297 -1286 
Q 1028 -1241 775 -1147 
L 775 -588 
Q 1028 -725 1275 -790 
Q 1522 -856 1778 -856 
Q 2344 -856 2625 -561 
Q 2906 -266 2906 331 
L 2906 616 
Q 2728 306 2450 153 
Q 2172 0 1784 0 
Q 1141 0 747 490 
Q 353 981 353 1791 
Q 353 2603 747 3093 
Q 1141 3584 1784 3584 
Q 2172 3584 2450 3431 
Q 2728 3278 2906 2969 
L 2906 3500 
L 3481 3500 
L 3481 434 
z
" transform="scale(0.015625)"/>
     </defs>
     <use xlink:href="#DejaVuSans-67"/>
     <use xlink:href="#DejaVuSans-72" transform="translate(63.476562 0)"/>
     <use xlink:href="#DejaVuSans-61" transform="translate(104.589844 0)"/>
     <use xlink:href="#DejaVuSans-64" transform="translate(165.869141 0)"/>
     <use xlink:href="#DejaVuSans-69" transform="translate(229.345703 0)"/>
     <use xlink:href="#DejaVuSans-65" transform="translate(257.128906 0)"/>
     <use xlink:href="#DejaVuSans-6e" transform="translate(318.652344 0)"/>
     <use xlink:href="#DejaVuSans-74" transform="translate(382.03125 0)"/>
    </g>
   </g>
   <g id="text_22">
    <!-- $U$ -->
    <g style="fill: #c0392b" transform="translate(370.41774 62.27664) scale(0.09 -0.09)">
     <use xlink:href="#DejaVuSans-55" transform="translate(0 0.09375)"/>
    </g>
   </g>
   <g id="text_23">
    <!-- $R$ -->
    <g style="fill: #2563eb" transform="translate(471.90387 188.6244) scale(0.09 -0.09)">
     <use xlink:href="#DejaVuSans-52" transform="translate(0 0.09375)"/>
    </g>
   </g>
   <g id="text_24">
    <!-- $R'$ -->
    <g style="fill: #16a085" transform="translate(367.165086 100.41936) scale(0.09 -0.09)">
     <defs>
      <path id="DejaVuSans-2032" d="M 125 3500 
L 666 4666 
L 1300 4666 
L 397 3500 
L 125 3500 
z
" transform="scale(0.015625)"/>
     </defs>
     <use xlink:href="#DejaVuSans-52" transform="translate(0 0.684375)"/>
     <use xlink:href="#DejaVuSans-2032" transform="translate(70.439453 38.965625) scale(0.7)"/>
    </g>
   </g>
   <g id="patch_10">
    <path d="M 481.385503 78.952658 
Q 481.385503 123.067614 481.385503 167.18257 
" style="fill: none; stroke: #c0392b; stroke-width: 1.4; stroke-linecap: round"/>
    <path d="M 479.585503 82.552658 
L 481.385503 78.952658 
L 483.185503 82.552658 
" style="fill: none; stroke: #c0392b; stroke-width: 1.4; stroke-linecap: round"/>
    <path d="M 483.185503 163.58257 
L 481.385503 167.18257 
L 479.585503 163.58257 
" style="fill: none; stroke: #c0392b; stroke-width: 1.4; stroke-linecap: round"/>
   </g>
   <g id="text_25">
    <!-- bias -->
    <g style="fill: #c0392b" transform="translate(487.717136 125.412069) scale(0.085 -0.085)">
     <use xlink:href="#DejaVuSans-62"/>
     <use xlink:href="#DejaVuSans-69" transform="translate(63.476562 0)"/>
     <use xlink:href="#DejaVuSans-61" transform="translate(91.259766 0)"/>
     <use xlink:href="#DejaVuSans-73" transform="translate(152.539062 0)"/>
    </g>
   </g>
   <g id="text_26">
    <!-- b  Matching the reference removes the bias ($S \to S'$) -->
    <g transform="translate(342.089574 15.75) scale(0.095 -0.095)">
     <defs>
      <path id="DejaVuSans-4d" d="M 628 4666 
L 1569 4666 
L 2759 1491 
L 3956 4666 
L 4897 4666 
L 4897 0 
L 4281 0 
L 4281 4097 
L 3078 897 
L 2444 897 
L 1241 4097 
L 1241 0 
L 628 0 
L 628 4666 
z
" transform="scale(0.015625)"/>
      <path id="DejaVuSans-2192" d="M 5050 2147 
L 5050 1866 
L 3822 638 
L 3447 1013 
L 4175 1741 
L 366 1741 
L 366 2272 
L 4175 2272 
L 3447 3000 
L 3822 3375 
L 5050 2147 
z
" transform="scale(0.015625)"/>
     </defs>
     <use xlink:href="#DejaVuSans-62" transform="translate(0 0.684375)"/>
     <use xlink:href="#DejaVuSans-20" transform="translate(63.476562 0.684375)"/>
     <use xlink:href="#DejaVuSans-20" transform="translate(95.263672 0.684375)"/>
     <use xlink:href="#DejaVuSans-4d" transform="translate(127.050781 0.684375)"/>
     <use xlink:href="#DejaVuSans-61" transform="translate(213.330078 0.684375)"/>
     <use xlink:href="#DejaVuSans-74" transform="translate(274.609375 0.684375)"/>
     <use xlink:href="#DejaVuSans-63" transform="translate(313.818359 0.684375)"/>
     <use xlink:href="#DejaVuSans-68" transform="translate(368.798828 0.684375)"/>
     <use xlink:href="#DejaVuSans-69" transform="translate(432.177734 0.684375)"/>
     <use xlink:href="#DejaVuSans-6e" transform="translate(459.960938 0.684375)"/>
     <use xlink:href="#DejaVuSans-67" transform="translate(523.339844 0.684375)"/>
     <use xlink:href="#DejaVuSans-20" transform="translate(586.816406 0.684375)"/>
     <use xlink:href="#DejaVuSans-74" transform="translate(618.603516 0.684375)"/>
     <use xlink:href="#DejaVuSans-68" transform="translate(657.8125 0.684375)"/>
     <use xlink:href="#DejaVuSans-65" transform="translate(721.191406 0.684375)"/>
     <use xlink:href="#DejaVuSans-20" transform="translate(782.714844 0.684375)"/>
     <use xlink:href="#DejaVuSans-72" transform="translate(814.501953 0.684375)"/>
     <use xlink:href="#DejaVuSans-65" transform="translate(855.615234 0.684375)"/>
     <use xlink:href="#DejaVuSans-66" transform="translate(917.138672 0.684375)"/>
     <use xlink:href="#DejaVuSans-65" transform="translate(952.34375 0.684375)"/>
     <use xlink:href="#DejaVuSans-72" transform="translate(1013.867188 0.684375)"/>
     <use xlink:href="#DejaVuSans-65" transform="translate(1054.980469 0.684375)"/>
     <use xlink:href="#DejaVuSans-6e" transform="translate(1116.503906 0.684375)"/>
     <use xlink:href="#DejaVuSans-63" transform="translate(1179.882812 0.684375)"/>
     <use xlink:href="#DejaVuSans-65" transform="translate(1234.863281 0.684375)"/>
     <use xlink:href="#DejaVuSans-20" transform="translate(1296.386719 0.684375)"/>
     <use xlink:href="#DejaVuSans-72" transform="translate(1328.173828 0.684375)"/>
     <use xlink:href="#DejaVuSans-65" transform="translate(1369.287109 0.684375)"/>
     <use xlink:href="#DejaVuSans-6d" transform="translate(1430.810547 0.684375)"/>
     <use xlink:href="#DejaVuSans-6f" transform="translate(1528.222656 0.684375)"/>
     <use xlink:href="#DejaVuSans-76" transform="translate(1589.404297 0.684375)"/>
     <use xlink:href="#DejaVuSans-65" transform="translate(1648.583984 0.684375)"/>
     <use xlink:href="#DejaVuSans-73" transform="translate(1710.107422 0.684375)"/>
     <use xlink:href="#DejaVuSans-20" transform="translate(1762.207031 0.684375)"/>
     <use xlink:href="#DejaVuSans-74" transform="translate(1793.994141 0.684375)"/>
     <use xlink:href="#DejaVuSans-68" transform="translate(1833.203125 0.684375)"/>
     <use xlink:href="#DejaVuSans-65" transform="translate(1896.582031 0.684375)"/>
     <use xlink:href="#DejaVuSans-20" transform="translate(1958.105469 0.684375)"/>
     <use xlink:href="#DejaVuSans-62" transform="translate(1989.892578 0.684375)"/>
     <use xlink:href="#DejaVuSans-69" transform="translate(2053.369141 0.684375)"/>
     <use xlink:href="#DejaVuSans-61" transform="translate(2081.152344 0.684375)"/>
     <use xlink:href="#DejaVuSans-73" transform="translate(2142.431641 0.684375)"/>
     <use xlink:href="#DejaVuSans-20" transform="translate(2194.53125 0.684375)"/>
     <use xlink:href="#DejaVuSans-28" transform="translate(2226.318359 0.684375)"/>
     <use xlink:href="#DejaVuSans-53" transform="translate(2265.332031 0.684375)"/>
     <use xlink:href="#DejaVuSans-2192" transform="translate(2348.291016 0.684375)"/>
     <use xlink:href="#DejaVuSans-53" transform="translate(2451.5625 0.684375)"/>
     <use xlink:href="#DejaVuSans-2032" transform="translate(2515.996094 38.965625) scale(0.7)"/>
     <use xlink:href="#DejaVuSans-29" transform="translate(2534.624023 0.684375)"/>
    </g>
   </g>
   <g id="PathCollection_1">
    <defs>
     <path id="m23fa5d7a53" d="M 0 4.1833 
C 1.109424 4.1833 2.173559 3.742521 2.95804 2.95804 
C 3.742521 2.173559 4.1833 1.109424 4.1833 0 
C 4.1833 -1.109424 3.742521 -2.173559 2.95804 -2.95804 
C 2.173559 -3.742521 1.109424 -4.1833 0 -4.1833 
C -1.109424 -4.1833 -2.173559 -3.742521 -2.95804 -2.95804 
C -3.742521 -2.173559 -4.1833 -1.109424 -4.1833 0 
C -4.1833 1.109424 -3.742521 2.173559 -2.95804 2.95804 
C -2.173559 3.742521 -1.109424 4.1833 0 4.1833 
z
" style="stroke: #000000; stroke-width: 0.5"/>
    </defs>
    <g clip-path="url(#p84ca029e26)">
     <use xlink:href="#m23fa5d7a53" x="373.74774" y="75.3882" style="fill: #c0392b; stroke: #000000; stroke-width: 0.5"/>
    </g>
   </g>
   <g id="PathCollection_2">
    <defs>
     <path id="m705d6659ed" d="M 0 4.1833 
C 1.109424 4.1833 2.173559 3.742521 2.95804 2.95804 
C 3.742521 2.173559 4.1833 1.109424 4.1833 0 
C 4.1833 -1.109424 3.742521 -2.173559 2.95804 -2.95804 
C 2.173559 -3.742521 1.109424 -4.1833 0 -4.1833 
C -1.109424 -4.1833 -2.173559 -3.742521 -2.95804 -2.95804 
C -3.742521 -2.173559 -4.1833 -1.109424 -4.1833 0 
C -4.1833 1.109424 -3.742521 2.173559 -2.95804 2.95804 
C -2.173559 3.742521 -1.109424 4.1833 0 4.1833 
z
" style="stroke: #000000; stroke-width: 0.5"/>
    </defs>
    <g clip-path="url(#p84ca029e26)">
     <use xlink:href="#m705d6659ed" x="475.05387" y="170.745" style="fill: #2563eb; stroke: #000000; stroke-width: 0.5"/>
    </g>
   </g>
   <g id="PathCollection_3">
    <defs>
     <path id="m912ca5def8" d="M -4.1833 4.1833 
L 4.1833 4.1833 
L 4.1833 -4.1833 
L -4.1833 -4.1833 
z
" style="stroke: #000000; stroke-width: 0.5"/>
    </defs>
    <g clip-path="url(#p84ca029e26)">
     <use xlink:href="#m912ca5def8" x="373.74774" y="75.3882" style="fill: #16a085; stroke: #000000; stroke-width: 0.5"/>
    </g>
   </g>
  </g>
 </g>
 <defs>
  <clipPath id="p82fb856e16">
   <rect x="7.2" y="21.75" width="269.41099" height="238.392"/>
  </clipPath>
  <clipPath id="p84ca029e26">
   <rect x="342.089574" y="21.75" width="234.270426" height="238.392"/>
  </clipPath>
 </defs>
</svg>
